<svg width="145" height="145" viewBox="0 0 145 145" fill="none" xmlns="http://www.w3.org/2000/svg">
<g opacity="0.5">
<path d="M139.243 100.861C137.694 101.492 135.986 102.225 134.087 103.042L134.013 103.073C130.488 104.59 126.441 106.331 122.028 107.961C113.134 111.249 102.503 114.189 90.6916 114.189C77.5458 114.189 67.4718 110.675 59.3914 106.8C56.2722 105.304 53.3856 103.72 50.8416 102.324C50.1587 101.949 49.4983 101.586 48.8669 101.244C45.7538 99.5561 43.3268 98.3473 41.1655 97.6674C31.4671 94.616 22.1033 93.3006 15.1353 92.7551C11.6618 92.4831 8.8104 92.4045 6.84492 92.3931C5.86284 92.3875 5.10387 92.3986 4.60116 92.4106C4.34986 92.4166 4.16278 92.4228 4.04407 92.4272L3.91787 92.4323L3.89748 92.4332L2.79041 92.4888C11.4683 122.808 39.3925 145 72.4999 145C102.476 145 128.203 126.807 139.243 100.861Z" fill="#A0A0A0"/>
<path d="M8.96736 37.5455L11.1219 39.7405L11.1448 39.7633L11.2805 39.8963C11.4108 40.0226 11.6199 40.222 11.9055 40.4842C12.4769 41.0089 13.3524 41.7832 14.5124 42.7247C16.8359 44.6102 20.2809 47.1498 24.6914 49.6941C33.5313 54.7934 46.0745 59.8135 61.1685 59.8135C71.1273 59.8135 78.751 56.9568 85.2188 53.5773C87.7932 52.2322 90.1114 50.8465 92.414 49.4702C93.0785 49.073 93.7417 48.6766 94.4094 48.2821C97.2531 46.6022 100.287 44.8906 103.361 43.8368C113.193 40.4663 121.777 39.0352 127.944 38.4484C131.029 38.1548 133.516 38.0719 135.261 38.0643C135.651 38.0626 136.004 38.0647 136.318 38.069C124.062 15.3995 100.079 0 72.4999 0C45.1333 0 21.3082 15.1628 8.96736 37.5455Z" fill="#A0A0A0"/>
<path opacity="0.5" d="M143.371 87.8545C144.438 82.9055 145 77.7687 145 72.5006C145 64.3704 143.662 56.5528 141.194 49.256L137.374 48.9822L137.366 48.9817L137.296 48.9777C137.222 48.9737 137.098 48.9677 136.924 48.9616C136.576 48.9493 136.031 48.9367 135.308 48.9398C133.862 48.9461 131.704 49.0153 128.974 49.2751C123.51 49.795 115.782 51.0756 106.887 54.1246C104.979 54.7787 102.803 55.9549 99.9409 57.6459C99.3668 57.985 98.7667 58.3439 98.143 58.7169C95.807 60.1139 93.1347 61.7119 90.2551 63.2165C82.7875 67.1184 73.4153 70.6891 61.1686 70.6891C43.6376 70.6891 29.2211 64.8622 19.2575 59.1147C14.2662 56.2354 10.3486 53.3516 7.65979 51.1695C6.31374 50.0771 5.27074 49.1567 4.55014 48.4949C4.41856 48.3741 4.29766 48.2618 4.18757 48.1587C1.47629 55.767 0 63.9614 0 72.5006C0 75.6209 0.19712 78.6951 0.579588 81.7116L3.36452 81.5719L3.38326 81.571L3.4412 81.5684L3.63759 81.5604C3.80377 81.5542 4.03985 81.5465 4.3416 81.5393C4.94499 81.5248 5.81171 81.5125 6.90798 81.5189C9.0992 81.5316 12.2152 81.6188 15.9843 81.9138C23.5015 82.5024 33.7238 83.926 44.4295 87.2943C47.6965 88.3222 50.946 90.0012 54.0504 91.6843C54.7723 92.0757 55.4912 92.4701 56.213 92.8661C58.7243 94.2437 61.2709 95.6407 64.0938 96.9945C71.1976 100.401 79.6423 103.314 90.6918 103.314C100.716 103.314 109.989 100.818 118.259 97.7614C122.397 96.2318 126.221 94.5873 129.79 93.0523L129.923 92.9952C133.363 91.5153 136.71 90.0756 139.655 89.0936L143.371 87.8545Z" fill="#A0A0A0"/>
</g>
</svg>
