<svg width="32" height="32" viewBox="0 0 32 32" fill="none" xmlns="http://www.w3.org/2000/svg">
<path opacity="0.4" d="M16 32C24.8366 32 32 24.8366 32 16C32 7.16344 24.8366 0 16 0C7.16344 0 0 7.16344 0 16C0 24.8366 7.16344 32 16 32Z" fill="black"/>
<path d="M17.81 23C17.5075 23 17.205 22.8855 16.9662 22.6401L11.3463 16.865C10.8846 16.3906 10.8846 15.6053 11.3463 15.1309L16.9662 9.35583C17.4279 8.88139 18.192 8.88139 18.6537 9.35583C19.1154 9.83027 19.1154 10.6155 18.6537 11.09L13.8776 15.998L18.6537 20.9059C19.1154 21.3804 19.1154 22.1656 18.6537 22.6401C18.4308 22.8855 18.1284 23 17.81 23Z" fill="black"/>
</svg>
