<svg width="32" height="32" viewBox="0 0 32 32" fill="none" xmlns="http://www.w3.org/2000/svg">
<path opacity="0.4" d="M29 12V27.0125C29 30.3375 28.1333 32 23.8 32H8.2C3.86667 32 3 30.3375 3 27.0125V12C3.27733 12.0333 3.572 12.0499 3.86667 12.0499H28.1333C28.428 12.0499 28.7227 12.0333 29 12Z" fill="black"/>
<path d="M32 4.79999V7.99999C32 10.928 30.672 12.512 28 12.752C27.744 12.784 27.472 12.8 27.2 12.8H4.79999C4.52799 12.8 4.25599 12.784 3.99999 12.752C1.328 12.512 0 10.928 0 7.99999V4.79999C0 1.6 1.6 0 4.79999 0H27.2C30.4 0 32 1.6 32 4.79999Z" fill="black"/>
<path d="M18.9119 20.4H13.0879C12.4319 20.4 11.8879 19.856 11.8879 19.2C11.8879 18.544 12.4319 18 13.0879 18H18.9119C19.5679 18 20.1119 18.544 20.1119 19.2C20.1119 19.856 19.5679 20.4 18.9119 20.4Z" fill="black"/>
</svg>
