<svg width="24" height="24" viewBox="0 0 24 24" fill="none" xmlns="http://www.w3.org/2000/svg">
<path opacity="0.4" d="M15 4H9C6.24 4 4 6.24 4 9V15C4 17.76 6.24 20 9 20H15C17.76 20 20 17.76 20 15V9C20 6.24 17.76 4 15 4ZM17.26 14.26C17.26 15.92 15.92 17.26 14.26 17.26H9.74C8.08 17.26 6.74 15.92 6.74 14.26V9.74C6.74 8.08 8.08 6.74 9.74 6.74H14.25C15.91 6.74 17.25 8.08 17.25 9.74V14.26H17.26Z" fill="black"/>
<path d="M9.06 2.75V4H9C8.5 4 8.02 4.07 7.56 4.21V2.75C7.56 2.34 7.89 2 8.31 2C8.72 2 9.06 2.34 9.06 2.75Z" fill="black"/>
<path d="M12.75 2.75V4H11.25V2.75C11.25 2.34 11.59 2 12 2C12.41 2 12.75 2.34 12.75 2.75Z" fill="black"/>
<path d="M16.45 2.75V4.21C15.99 4.07 15.5 4 15 4H14.95V2.75C14.95 2.34 15.29 2 15.7 2C16.11 2 16.45 2.34 16.45 2.75Z" fill="black"/>
<path d="M22 8.3C22 8.72 21.67 9.05 21.25 9.05H20V9C20 8.5 19.93 8.01 19.79 7.55H21.25C21.67 7.55 22 7.89 22 8.3Z" fill="black"/>
<path d="M22 12C22 12.41 21.67 12.75 21.25 12.75H20V11.25H21.25C21.67 11.25 22 11.58 22 12Z" fill="black"/>
<path d="M22 15.7C22 16.11 21.67 16.45 21.25 16.45H19.79C19.93 15.99 20 15.5 20 15V14.95H21.25C21.67 14.95 22 15.28 22 15.7Z" fill="black"/>
<path d="M16.45 19.79V21.25C16.45 21.66 16.11 22 15.7 22C15.29 22 14.95 21.66 14.95 21.25V20H15C15.5 20 15.99 19.93 16.45 19.79Z" fill="black"/>
<path d="M12.76 20V21.25C12.76 21.66 12.42 22 12.01 22C11.59 22 11.26 21.66 11.26 21.25V20H12.76Z" fill="black"/>
<path d="M9.06 20V21.25C9.06 21.66 8.72 22 8.31 22C7.89 22 7.56 21.66 7.56 21.25V19.79C8.02 19.93 8.5 20 9 20H9.06Z" fill="black"/>
<path d="M4.21 7.55C4.07 8.01 4 8.5 4 9V9.05H2.75C2.34 9.05 2 8.72 2 8.3C2 7.89 2.34 7.55 2.75 7.55H4.21Z" fill="black"/>
<path d="M4 11.25V12.75H2.75C2.34 12.75 2 12.41 2 12C2 11.58 2.34 11.25 2.75 11.25H4Z" fill="black"/>
<path d="M4.21 16.45H2.75C2.34 16.45 2 16.11 2 15.7C2 15.28 2.34 14.95 2.75 14.95H4V15C4 15.5 4.07 15.99 4.21 16.45Z" fill="black"/>
<path d="M17.26 9.74001V14.25C17.26 15.91 15.92 17.25 14.26 17.25H9.73999C8.07999 17.25 6.73999 15.91 6.73999 14.25V9.74001C6.73999 8.08001 8.07999 6.74001 9.73999 6.74001H14.25C15.91 6.74001 17.26 8.09001 17.26 9.74001Z" fill="black"/>
</svg>
